<?xml version="1.0" encoding="utf-8"?>
<!-- Generator: Adobe Illustrator 23.0.4, SVG Export Plug-In . SVG Version: 6.00 Build 0)  -->
<svg version="1.1" id="_x32__line" xmlns="http://www.w3.org/2000/svg" xmlns:xlink="http://www.w3.org/1999/xlink" x="0px" y="0px"
	 viewBox="0 0 318 75" style="enable-background:new 0 0 318 75;" xml:space="preserve">
<style type="text/css">
	.st0{display:none;}
	.st1{display:inline;fill:#0064A4;}
	.st2{fill:#0064A4;}
</style>
<g class="st0">
	<path class="st1" d="M149.2,24.7c0,4.9-2.8,7.5-7,7.5c-4.2,0-7-2.6-7-7.3V15h1.9v9.7c0,3.6,1.9,5.7,5.2,5.7c3.1,0,5.1-1.9,5.1-5.6
		V15h1.9V24.7z"/>
	<path class="st1" d="M154.8,31.9h-1.9V19.4h1.9v2.2c0.8-1.4,2.1-2.4,4.3-2.4c3,0,4.8,2,4.8,5v7.7h-1.9v-7.3c0-2.3-1.3-3.8-3.4-3.8
		c-2.1,0-3.7,1.6-3.7,3.9V31.9z"/>
	<path class="st1" d="M167.3,16.7v-2h2.1v2H167.3z M167.4,31.9V19.4h1.9v12.5H167.4z"/>
	<path class="st1" d="M182.4,19.4h2L178.9,32h-1.6l-5.4-12.6h2l4.2,10.3L182.4,19.4z"/>
	<path class="st1" d="M191.6,30.5c1.7,0,2.9-0.7,3.9-1.8l1.2,1c-1.3,1.4-2.8,2.3-5.1,2.3c-3.4,0-6.2-2.6-6.2-6.5
		c0-3.6,2.5-6.5,6-6.5c3.7,0,5.8,2.9,5.8,6.6c0,0.2,0,0.4,0,0.6h-9.9C187.4,29,189.4,30.5,191.6,30.5z M195.2,25
		c-0.2-2.3-1.5-4.2-4-4.2c-2.2,0-3.8,1.8-4.1,4.2H195.2z"/>
	<path class="st1" d="M201.7,31.9h-1.9V19.4h1.9v3.3c0.9-2.1,2.7-3.6,5.1-3.5v2h-0.1c-2.7,0-4.9,2-4.9,5.7V31.9z"/>
	<path class="st1" d="M213.2,32.1c-1.8,0-3.8-0.7-5.2-1.8L209,29c1.4,1,2.8,1.6,4.3,1.6c1.5,0,2.6-0.8,2.6-2v0
		c0-1.3-1.5-1.7-3.1-2.2c-2-0.6-4.1-1.2-4.1-3.5v0c0-2.1,1.8-3.6,4.2-3.6c1.5,0,3.2,0.5,4.5,1.4l-0.8,1.4c-1.2-0.7-2.5-1.2-3.7-1.2
		c-1.5,0-2.4,0.8-2.4,1.8v0c0,1.2,1.5,1.6,3.2,2.1c1.9,0.6,4,1.3,4,3.6v0C217.7,30.7,215.7,32.1,213.2,32.1z"/>
	<path class="st1" d="M220.7,16.7v-2h2.1v2H220.7z M220.8,31.9V19.4h1.9v12.5H220.8z"/>
	<path class="st1" d="M229,28.3c0,1.5,0.8,2.1,2.1,2.1c0.6,0,1.2-0.1,1.8-0.4v1.6c-0.7,0.3-1.4,0.5-2.2,0.5c-2,0-3.5-1-3.5-3.5v-7.5
		h-1.7v-1.6h1.7v-3.8h1.9v3.8h4v1.6h-4V28.3z"/>
	<path class="st1" d="M241.8,32.3c-1.1,2.6-2.3,3.5-4.1,3.5c-1,0-1.8-0.2-2.7-0.6l0.6-1.5c0.6,0.3,1.2,0.5,2,0.5
		c1.1,0,1.8-0.6,2.6-2.3l-5.7-12.4h2l4.5,10.4l4-10.4h2L241.8,32.3z"/>
	<path class="st1" d="M262,32.2c-3.7,0-6.5-2.9-6.5-6.5s2.7-6.5,6.5-6.5c3.7,0,6.5,2.9,6.5,6.5S265.7,32.2,262,32.2z M262,20.8
		c-2.7,0-4.6,2.1-4.6,4.8s2,4.9,4.6,4.9c2.7,0,4.6-2.1,4.6-4.8C266.6,23,264.6,20.8,262,20.8z"/>
	<path class="st1" d="M277.8,19.5v1.6h-3.9v10.8h-1.9V21.1h-1.7v-1.6h1.7v-1.1c0-2.7,1.4-4.2,3.8-4.2c0.9,0,1.4,0.1,2,0.3v1.6
		c-0.7-0.2-1.2-0.3-1.8-0.3c-1.4,0-2.2,0.9-2.2,2.7v1L277.8,19.5L277.8,19.5z"/>
	<path class="st1" d="M143.1,60.3c-4.9,0-8.5-3.8-8.5-8.7c0-4.8,3.6-8.8,8.5-8.8c3.1,0,4.9,1.1,6.6,2.7l-1.3,1.4
		c-1.4-1.3-3-2.3-5.3-2.3c-3.7,0-6.5,3-6.5,6.9c0,3.9,2.8,7,6.5,7c2.3,0,3.8-0.9,5.4-2.4l1.3,1.2C148.1,59.1,146.2,60.3,143.1,60.3z
		"/>
	<path class="st1" d="M153.1,49.9l-0.6-1.5c1.4-0.6,2.7-1,4.5-1c3.4,0,5.3,1.7,5.3,5V60h-1.8v-1.9c-0.9,1.1-2.3,2.1-4.5,2.1
		c-2.3,0-4.7-1.3-4.7-3.9c0-2.7,2.2-4,5.3-4c1.6,0,2.7,0.2,3.8,0.5v-0.4c0-2.2-1.4-3.4-3.7-3.4C155.4,49,154.3,49.4,153.1,49.9z
		 M153.3,56.3c0,1.6,1.4,2.5,3.1,2.5c2.3,0,4.2-1.4,4.2-3.4v-1.2c-0.9-0.3-2.1-0.5-3.7-0.5C154.6,53.7,153.3,54.7,153.3,56.3z"/>
	<path class="st1" d="M166,60V42.4h1.9V60H166z"/>
	<path class="st1" d="M171.8,44.8v-2.1h2.1v2L171.8,44.8L171.8,44.8z M171.9,60V47.5h1.9V60H171.9z"/>
	<path class="st1" d="M184.1,47.6v1.6h-3.9V60h-1.9V49.2h-1.7v-1.6h1.7v-1.1c0-2.7,1.4-4.2,3.8-4.2c0.9,0,1.4,0.1,2,0.3v1.6
		c-0.7-0.2-1.2-0.3-1.8-0.3c-1.4,0-2.2,0.9-2.2,2.7v1H184.1z"/>
	<path class="st1" d="M191.4,60.3c-3.7,0-6.5-2.9-6.5-6.5c0-3.5,2.7-6.5,6.5-6.5c3.7,0,6.5,2.9,6.5,6.5S195.1,60.3,191.4,60.3z
		 M191.4,48.9c-2.7,0-4.6,2.1-4.6,4.8s2,4.9,4.6,4.9c2.7,0,4.6-2.1,4.6-4.8C196,51.1,194,48.9,191.4,48.9z"/>
	<path class="st1" d="M202.6,60h-1.9V47.5h1.9v3.3c0.9-2.1,2.7-3.6,5.1-3.5v2h-0.1c-2.7,0-4.9,2-4.9,5.7V60z"/>
	<path class="st1" d="M211.9,60h-1.9V47.5h1.9v2.2c0.8-1.3,2.1-2.4,4.3-2.4c3,0,4.8,2,4.8,5V60h-1.9v-7.3c0-2.3-1.3-3.8-3.4-3.8
		c-2.1,0-3.7,1.6-3.7,3.9V60z"/>
	<path class="st1" d="M224.5,44.8v-2.1h2.1v2L224.5,44.8L224.5,44.8z M224.6,60V47.5h1.9V60H224.6z"/>
	<path class="st1" d="M231,49.9l-0.6-1.5c1.4-0.6,2.7-1,4.5-1c3.4,0,5.3,1.7,5.3,5V60h-1.8v-1.9c-0.9,1.1-2.3,2.1-4.5,2.1
		c-2.3,0-4.7-1.3-4.7-3.9c0-2.7,2.2-4,5.3-4c1.6,0,2.7,0.2,3.8,0.5v-0.4c0-2.2-1.4-3.4-3.7-3.4C233.3,49,232.2,49.4,231,49.9z
		 M231.2,56.3c0,1.6,1.4,2.5,3.1,2.5c2.3,0,4.2-1.4,4.2-3.4v-1.2c-0.9-0.3-2.1-0.5-3.7-0.5C232.5,53.7,231.2,54.7,231.2,56.3z"/>
	<path class="st1" d="M244.4,60h-0.9v-2.5h2.2v2.2c0,2-0.8,2.9-2.7,3.3l-0.3-0.8C244,61.7,244.5,61,244.4,60z"/>
	<path class="st1" d="M258.3,43.1V60h-1.9V43.1H258.3z"/>
	<path class="st1" d="M264.3,60h-1.9V47.5h1.9v3.3c0.9-2.1,2.7-3.6,5.1-3.5v2h-0.1c-2.7,0-4.9,2-4.9,5.7L264.3,60L264.3,60z"/>
	<path class="st1" d="M281,47.5h2l-5.4,12.6h-1.6l-5.4-12.6h2l4.2,10.3L281,47.5z"/>
	<path class="st1" d="M285.5,44.8v-2.1h2.1v2L285.5,44.8L285.5,44.8z M285.6,60V47.5h1.9V60H285.6z"/>
	<path class="st1" d="M293.1,60h-1.9V47.5h1.9v2.2c0.8-1.3,2.1-2.4,4.3-2.4c3,0,4.8,2,4.8,5V60h-1.9v-7.3c0-2.3-1.3-3.8-3.4-3.8
		c-2.1,0-3.7,1.6-3.7,3.9V60z"/>
	<path class="st1" d="M311.1,58.7c1.7,0,2.9-0.7,3.9-1.8l1.2,1c-1.3,1.4-2.8,2.3-5.1,2.3c-3.4,0-6.2-2.6-6.2-6.5
		c0-3.6,2.5-6.5,6-6.5c3.7,0,5.8,2.9,5.8,6.6c0,0.2,0,0.4,0,0.6h-9.9C307,57.2,308.9,58.7,311.1,58.7z M314.8,53.1
		c-0.2-2.3-1.5-4.2-4-4.2c-2.2,0-3.8,1.8-4,4.2H314.8z"/>
</g>
<g>
	<path class="st2" d="M3.5,13.5V3.8h4.9v9.6c0,2.5,1.3,3.7,3.2,3.7c2,0,3.2-1.1,3.2-3.6V3.8h4.9v9.6c0,5.6-3.2,8-8.1,8
		C6.6,21.5,3.5,19,3.5,13.5z"/>
	<path class="st2" d="M21.9,12.5L21.9,12.5c0-5.1,3.9-9.1,9.1-9.1c3.5,0,5.8,1.5,7.3,3.6l-3.6,2.8c-1-1.2-2.1-2-3.8-2
		c-2.4,0-4.1,2.1-4.1,4.6v0c0,2.6,1.7,4.6,4.1,4.6c1.8,0,2.9-0.8,3.9-2.1l3.6,2.6c-1.6,2.3-3.8,3.9-7.6,3.9
		C25.9,21.5,21.9,17.7,21.9,12.5z"/>
	<path class="st2" d="M41.2,3.8H46v17.3h-4.8V3.8z"/>
</g>
<g>
	<path class="st2" d="M52.8,3.8h6.3c3.5,0,5.2,1.8,5.2,4.3c0,2-1.2,3.4-2.6,3.8c1.2,0.4,3.2,1.6,3.2,4.2c0,3.4-2.6,5.1-5.7,5.1h-6.5
		V3.8z M58.7,11.2c2.8,0,3.9-1.1,3.9-2.9c0-1.6-1.2-2.9-3.4-2.9h-4.6v5.8H58.7z M54.6,19.7h4.6c2.2,0,4-1.1,4-3.5
		c0-2.1-1.3-3.5-4.6-3.5h-4V19.7z"/>
	<path class="st2" d="M69,12.1c0-1.9,0-2.9,0-3.4h1.6c0,0.4,0.1,1.3,0.1,2.7c0.7-1.8,2.2-2.9,4.3-3v1.7c-2.6,0.1-4.3,1.7-4.3,4.8
		v6.3H69V12.1z"/>
	<path class="st2" d="M86.8,18.7c0,1.1,0.1,2.2,0.2,2.5h-1.6c-0.1-0.3-0.2-0.9-0.2-1.8c-0.4,0.9-1.5,2.1-4,2.1
		c-2.9,0-4.2-1.9-4.2-3.8c0-2.8,2.2-4,5.9-4c1,0,1.8,0,2.3,0v-1.2c0-1.2-0.4-2.7-3-2.7c-2.3,0-2.7,1.2-3,2.2h-1.6
		c0.2-1.5,1.1-3.6,4.6-3.6c3,0,4.6,1.2,4.6,4V18.7z M85.2,15c-0.4,0-1.5,0-2.3,0c-2.7,0-4.2,0.7-4.2,2.7c0,1.5,1,2.5,2.7,2.5
		c3.3,0,3.8-2.2,3.8-4.7V15z"/>
	<path class="st2" d="M91.7,11.9c0-1.1,0-2.2,0-3.2h1.6c0.1,0.4,0.1,1.9,0.1,2.2c0.5-1.2,1.6-2.5,4.1-2.5c2.3,0,4.2,1.3,4.2,4.7v8.1
		h-1.7v-7.9c0-2.1-0.8-3.4-2.9-3.4c-2.7,0-3.7,2.2-3.7,4.8v6.5h-1.7V11.9z"/>
	<path class="st2" d="M116.4,2.9v14.7c0,1.2,0,2.3,0,3.6h-1.6c-0.1-0.3-0.1-1.4-0.1-2c-0.6,1.4-2,2.3-4.1,2.3
		c-3.2,0-5.2-2.6-5.2-6.4c0-3.9,2.1-6.7,5.6-6.7c2.4,0,3.4,1,3.7,1.8V2.9H116.4z M107.2,15c0,3.2,1.6,5,3.7,5c3.1,0,3.9-2.2,3.9-5.3
		c0-3-0.7-4.8-3.7-4.8C108.7,9.9,107.2,11.8,107.2,15z"/>
	<path class="st2" d="M142.6,21.2h-1.4c-0.1-0.3-0.2-1.1-0.2-2.6c-0.7,1.2-2.1,2.8-5.5,2.8c-5,0-7.6-3.8-7.6-8.7
		c0-5.2,2.8-9.1,7.9-9.1c3.9,0,6.4,2.1,6.9,5.2H141c-0.7-2.2-2.2-3.7-5.2-3.7c-4.2,0-6,3.3-6,7.5c0,3.8,1.8,7.3,5.9,7.3
		c4.1,0,5.2-2.7,5.2-6.2v-0.2h-5.3V12h7V21.2z"/>
	<path class="st2" d="M157,17.6c0,1.2,0,3.1,0,3.7h-1.6c0-0.3-0.1-1.1-0.1-2c-0.6,1.4-1.8,2.3-3.9,2.3c-1.9,0-4.1-0.9-4.1-4.6V8.7
		h1.6v7.9c0,1.7,0.5,3.4,2.8,3.4c2.6,0,3.6-1.4,3.6-4.8V8.7h1.7V17.6z"/>
	<path class="st2" d="M161.8,2.9h1.7v2.6h-1.7V2.9z M161.8,8.7h1.7v12.5h-1.7V8.7z"/>
	<path class="st2" d="M178.3,2.9v14.7c0,1.2,0,2.3,0,3.6h-1.6c-0.1-0.3-0.1-1.4-0.1-2c-0.6,1.4-2,2.3-4.1,2.3
		c-3.2,0-5.2-2.6-5.2-6.4c0-3.9,2.1-6.7,5.6-6.7c2.4,0,3.4,1,3.7,1.8V2.9H178.3z M169.1,15c0,3.2,1.6,5,3.7,5c3.1,0,3.9-2.2,3.9-5.3
		c0-3-0.7-4.8-3.7-4.8C170.6,9.9,169.1,11.8,169.1,15z"/>
	<path class="st2" d="M183.8,15.2c0,2.9,1.5,4.8,3.8,4.8c2.2,0,2.9-1.2,3.3-2.2h1.7c-0.5,1.6-1.8,3.6-5.1,3.6
		c-3.9,0-5.4-3.2-5.4-6.4c0-3.6,1.8-6.7,5.6-6.7c3.9,0,5.2,3.3,5.2,5.8c0,0.4,0,0.7,0,1H183.8z M191.2,13.9c0-2.3-1.2-4.1-3.5-4.1
		c-2.4,0-3.5,1.7-3.7,4.1H191.2z"/>
</g>
</svg>
