<?xml version="1.0" encoding="utf-8"?>
<!-- Generator: Adobe Illustrator 23.0.4, SVG Export Plug-In . SVG Version: 6.00 Build 0)  -->
<svg version="1.1" id="_x32__line" xmlns="http://www.w3.org/2000/svg" xmlns:xlink="http://www.w3.org/1999/xlink" x="0px" y="0px"
	 viewBox="0 0 318 75" style="enable-background:new 0 0 318 75;" xml:space="preserve">
<style type="text/css">
	.st0{fill:#FFFFFF;}
</style>
<g>
	<g>
		<path class="st0" d="M149.2,24.7c0,4.9-2.8,7.5-7,7.5c-4.2,0-7-2.6-7-7.3V15h1.9v9.7c0,3.6,1.9,5.7,5.2,5.7c3.1,0,5.1-1.9,5.1-5.6
			V15h1.9V24.7z"/>
		<path class="st0" d="M154.8,31.9h-1.9V19.4h1.9v2.2c0.8-1.4,2.1-2.4,4.3-2.4c3,0,4.8,2,4.8,5v7.7h-1.9v-7.3c0-2.3-1.3-3.8-3.4-3.8
			c-2.1,0-3.7,1.6-3.7,3.9V31.9z"/>
		<path class="st0" d="M167.3,16.7v-2h2.1v2H167.3z M167.4,31.9V19.4h1.9v12.5H167.4z"/>
		<path class="st0" d="M182.4,19.4h2L178.9,32h-1.6l-5.4-12.6h2l4.2,10.3L182.4,19.4z"/>
		<path class="st0" d="M191.6,30.5c1.7,0,2.9-0.7,3.9-1.8l1.2,1c-1.3,1.4-2.8,2.3-5.1,2.3c-3.4,0-6.2-2.6-6.2-6.5
			c0-3.6,2.5-6.5,6-6.5c3.7,0,5.8,2.9,5.8,6.6c0,0.2,0,0.4,0,0.6h-9.9C187.4,29,189.4,30.5,191.6,30.5z M195.2,25
			c-0.2-2.3-1.5-4.2-4-4.2c-2.2,0-3.8,1.8-4.1,4.2H195.2z"/>
		<path class="st0" d="M201.7,31.9h-1.9V19.4h1.9v3.3c0.9-2.1,2.7-3.6,5.1-3.5v2h-0.1c-2.7,0-4.9,2-4.9,5.7V31.9z"/>
		<path class="st0" d="M213.2,32.1c-1.8,0-3.8-0.7-5.2-1.8L209,29c1.4,1,2.8,1.6,4.3,1.6c1.5,0,2.6-0.8,2.6-2v0
			c0-1.3-1.5-1.7-3.1-2.2c-2-0.6-4.1-1.2-4.1-3.5v0c0-2.1,1.8-3.6,4.2-3.6c1.5,0,3.2,0.5,4.5,1.4l-0.8,1.4c-1.2-0.7-2.5-1.2-3.7-1.2
			c-1.5,0-2.4,0.8-2.4,1.8v0c0,1.2,1.5,1.6,3.2,2.1c1.9,0.6,4,1.3,4,3.6v0C217.7,30.7,215.7,32.1,213.2,32.1z"/>
		<path class="st0" d="M220.7,16.7v-2h2.1v2H220.7z M220.8,31.9V19.4h1.9v12.5H220.8z"/>
		<path class="st0" d="M229,28.3c0,1.5,0.8,2.1,2.1,2.1c0.6,0,1.2-0.1,1.8-0.4v1.6c-0.7,0.3-1.4,0.5-2.2,0.5c-2,0-3.5-1-3.5-3.5
			v-7.5h-1.7v-1.6h1.7v-3.8h1.9v3.8h4v1.6h-4V28.3z"/>
		<path class="st0" d="M241.8,32.3c-1.1,2.6-2.3,3.5-4.1,3.5c-1,0-1.8-0.2-2.7-0.6l0.6-1.5c0.6,0.3,1.2,0.5,2,0.5
			c1.1,0,1.8-0.6,2.6-2.3l-5.7-12.4h2l4.5,10.4l4-10.4h2L241.8,32.3z"/>
		<path class="st0" d="M262,32.2c-3.7,0-6.5-2.9-6.5-6.5s2.7-6.5,6.5-6.5c3.7,0,6.5,2.9,6.5,6.5S265.7,32.2,262,32.2z M262,20.8
			c-2.7,0-4.6,2.1-4.6,4.8s2,4.9,4.6,4.9c2.7,0,4.6-2.1,4.6-4.8C266.6,23,264.6,20.8,262,20.8z"/>
		<path class="st0" d="M277.8,19.5v1.6h-3.9v10.8h-1.9V21.1h-1.7v-1.6h1.7v-1.1c0-2.7,1.4-4.2,3.8-4.2c0.9,0,1.4,0.1,2,0.3v1.6
			c-0.7-0.2-1.2-0.3-1.8-0.3c-1.4,0-2.2,0.9-2.2,2.7v1L277.8,19.5L277.8,19.5z"/>
		<path class="st0" d="M143.1,60.3c-4.9,0-8.5-3.8-8.5-8.7c0-4.8,3.6-8.8,8.5-8.8c3.1,0,4.9,1.1,6.6,2.7l-1.3,1.4
			c-1.4-1.3-3-2.3-5.3-2.3c-3.7,0-6.5,3-6.5,6.9c0,3.9,2.8,7,6.5,7c2.3,0,3.8-0.9,5.4-2.4l1.3,1.2C148.1,59.1,146.2,60.3,143.1,60.3
			z"/>
		<path class="st0" d="M153.1,49.9l-0.6-1.5c1.4-0.6,2.7-1,4.5-1c3.4,0,5.3,1.7,5.3,5V60h-1.8v-1.9c-0.9,1.1-2.3,2.1-4.5,2.1
			c-2.3,0-4.7-1.3-4.7-3.9c0-2.7,2.2-4,5.3-4c1.6,0,2.7,0.2,3.8,0.5v-0.4c0-2.2-1.4-3.4-3.7-3.4C155.4,49,154.3,49.4,153.1,49.9z
			 M153.3,56.3c0,1.6,1.4,2.5,3.1,2.5c2.3,0,4.2-1.4,4.2-3.4v-1.2c-0.9-0.3-2.1-0.5-3.7-0.5C154.6,53.7,153.3,54.7,153.3,56.3z"/>
		<path class="st0" d="M166,60V42.4h1.9V60H166z"/>
		<path class="st0" d="M171.8,44.8v-2.1h2.1v2L171.8,44.8L171.8,44.8z M171.9,60V47.5h1.9V60H171.9z"/>
		<path class="st0" d="M184.1,47.6v1.6h-3.9V60h-1.9V49.2h-1.7v-1.6h1.7v-1.1c0-2.7,1.4-4.2,3.8-4.2c0.9,0,1.4,0.1,2,0.3v1.6
			c-0.7-0.2-1.2-0.3-1.8-0.3c-1.4,0-2.2,0.9-2.2,2.7v1H184.1z"/>
		<path class="st0" d="M191.4,60.3c-3.7,0-6.5-2.9-6.5-6.5c0-3.5,2.7-6.5,6.5-6.5c3.7,0,6.5,2.9,6.5,6.5S195.1,60.3,191.4,60.3z
			 M191.4,48.9c-2.7,0-4.6,2.1-4.6,4.8s2,4.9,4.6,4.9c2.7,0,4.6-2.1,4.6-4.8C196,51.1,194,48.9,191.4,48.9z"/>
		<path class="st0" d="M202.6,60h-1.9V47.5h1.9v3.3c0.9-2.1,2.7-3.6,5.1-3.5v2h-0.1c-2.7,0-4.9,2-4.9,5.7V60z"/>
		<path class="st0" d="M211.9,60h-1.9V47.5h1.9v2.2c0.8-1.3,2.1-2.4,4.3-2.4c3,0,4.8,2,4.8,5V60h-1.9v-7.3c0-2.3-1.3-3.8-3.4-3.8
			c-2.1,0-3.7,1.6-3.7,3.9V60z"/>
		<path class="st0" d="M224.5,44.8v-2.1h2.1v2L224.5,44.8L224.5,44.8z M224.6,60V47.5h1.9V60H224.6z"/>
		<path class="st0" d="M231,49.9l-0.6-1.5c1.4-0.6,2.7-1,4.5-1c3.4,0,5.3,1.7,5.3,5V60h-1.8v-1.9c-0.9,1.1-2.3,2.1-4.5,2.1
			c-2.3,0-4.7-1.3-4.7-3.9c0-2.7,2.2-4,5.3-4c1.6,0,2.7,0.2,3.8,0.5v-0.4c0-2.2-1.4-3.4-3.7-3.4C233.3,49,232.2,49.4,231,49.9z
			 M231.2,56.3c0,1.6,1.4,2.5,3.1,2.5c2.3,0,4.2-1.4,4.2-3.4v-1.2c-0.9-0.3-2.1-0.5-3.7-0.5C232.5,53.7,231.2,54.7,231.2,56.3z"/>
		<path class="st0" d="M244.4,60h-0.9v-2.5h2.2v2.2c0,2-0.8,2.9-2.7,3.3l-0.3-0.8C244,61.7,244.5,61,244.4,60z"/>
		<path class="st0" d="M258.3,43.1V60h-1.9V43.1H258.3z"/>
		<path class="st0" d="M264.3,60h-1.9V47.5h1.9v3.3c0.9-2.1,2.7-3.6,5.1-3.5v2h-0.1c-2.7,0-4.9,2-4.9,5.7L264.3,60L264.3,60z"/>
		<path class="st0" d="M281,47.5h2l-5.4,12.6h-1.6l-5.4-12.6h2l4.2,10.3L281,47.5z"/>
		<path class="st0" d="M285.5,44.8v-2.1h2.1v2L285.5,44.8L285.5,44.8z M285.6,60V47.5h1.9V60H285.6z"/>
		<path class="st0" d="M293.1,60h-1.9V47.5h1.9v2.2c0.8-1.3,2.1-2.4,4.3-2.4c3,0,4.8,2,4.8,5V60h-1.9v-7.3c0-2.3-1.3-3.8-3.4-3.8
			c-2.1,0-3.7,1.6-3.7,3.9V60z"/>
		<path class="st0" d="M311.1,58.7c1.7,0,2.9-0.7,3.9-1.8l1.2,1c-1.3,1.4-2.8,2.3-5.1,2.3c-3.4,0-6.2-2.6-6.2-6.5
			c0-3.6,2.5-6.5,6-6.5c3.7,0,5.8,2.9,5.8,6.6c0,0.2,0,0.4,0,0.6h-9.9C307,57.2,308.9,58.7,311.1,58.7z M314.8,53.1
			c-0.2-2.3-1.5-4.2-4-4.2c-2.2,0-3.8,1.8-4,4.2H314.8z"/>
	</g>
	<g>
		<path class="st0" d="M0,40.3V15h12.6v25c0,6.5,3.3,9.6,8.3,9.6c5.1,0,8.4-3,8.4-9.3V15h12.6v24.9c0,14.5-8.3,20.9-21.1,20.9
			C8,60.8,0,54.3,0,40.3z"/>
		<path class="st0" d="M47.9,37.6v-0.1c0-13.1,10-23.4,23.7-23.4c9.2,0,15.1,3.9,19.1,9.3l-9.4,7.3c-2.6-3.1-5.5-5.3-9.8-5.3
			c-6.3,0-10.7,5.4-10.7,12v0.1c0,6.8,4.4,12,10.7,12c4.7,0,7.5-2.2,10.2-5.5l9.4,6.7c-4.2,5.9-10,10.2-19.9,10.2
			C58.2,60.9,47.9,51.1,47.9,37.6z"/>
		<path class="st0" d="M98,15h12.5v45H98V15z"/>
	</g>
</g>
</svg>
