<svg xmlns="http://www.w3.org/2000/svg" viewBox="0 0 110.44 46.8"><title>Artboard 1</title><path d="M0,26.16V.9H12.6v25c0,6.49,3.28,9.57,8.29,9.57s8.36-2.95,8.36-9.25V.9h12.6V25.84c0,14.47-8.29,20.89-21.08,20.89S0,40.24,0,26.16Z" style="fill:#fff"/><path d="M47.89,23.53V23.4c0-13.12,10-23.4,23.66-23.4,9.19,0,15.11,3.86,19.09,9.32l-9.38,7.27c-2.57-3.15-5.53-5.28-9.84-5.28-6.3,0-10.73,5.41-10.73,12v.13c0,6.75,4.43,12,10.73,12,4.69,0,7.46-2.18,10.16-5.46L91,36.64C86.72,42.5,81,46.8,71.1,46.8A22.85,22.85,0,0,1,47.89,23.53Z" style="fill:#fff"/><path d="M98,.9h12.47v45H98Z" style="fill:#fff"/></svg>