<svg xmlns="http://www.w3.org/2000/svg" viewBox="0 0 189.43 18.62"><title>UCI-Brand-Guide</title><path d="M0,10.62V.9H4.85v9.62c0,2.5,1.26,3.69,3.19,3.69s3.22-1.14,3.22-3.56V.9h4.85v9.6c0,5.57-3.19,8-8.12,8S0,16,0,10.62Z" style="fill:#0064a4"/><path d="M18.44,9.61v0a8.88,8.88,0,0,1,9.1-9,8.53,8.53,0,0,1,7.35,3.59l-3.61,2.8a4.69,4.69,0,0,0-3.79-2,4.31,4.31,0,0,0-4.13,4.6v.05c0,2.6,1.71,4.63,4.13,4.63a4.71,4.71,0,0,0,3.91-2.11L35,14.66a8.74,8.74,0,0,1-7.65,3.91A8.8,8.8,0,0,1,18.44,9.61Z" style="fill:#0064a4"/><path d="M37.71.9h4.8V18.22h-4.8Z" style="fill:#0064a4"/><path d="M49.32.94h6.34c3.48,0,5.23,1.84,5.23,4.3A3.77,3.77,0,0,1,58.3,9a4.35,4.35,0,0,1,3.19,4.24c0,3.39-2.56,5.05-5.71,5.05H49.32ZM55.21,8.3c2.79,0,3.86-1.06,3.86-2.93,0-1.63-1.15-2.89-3.41-2.89h-4.6V8.3Zm-4.15,8.48h4.63c2.24,0,4-1.09,4-3.47,0-2.06-1.32-3.47-4.57-3.47h-4Z" style="fill:#0064a4"/><path d="M65.54,9.2c0-1.95,0-2.89,0-3.41h1.64c0,.38,0,1.26,0,2.69a4.63,4.63,0,0,1,4.3-3V7.21c-2.59.13-4.3,1.73-4.3,4.79v6.32H65.54Z" style="fill:#0064a4"/><path d="M83.34,15.78a17.29,17.29,0,0,0,.17,2.54H81.92a7.4,7.4,0,0,1-.22-1.8c-.43.89-1.49,2.1-4,2.1-2.93,0-4.19-1.9-4.19-3.79,0-2.78,2.16-4,5.91-4h2.27V9.61c0-1.19-.37-2.72-3-2.72-2.33,0-2.7,1.2-3,2.2H74.11c.16-1.53,1.11-3.6,4.63-3.6,3,0,4.6,1.23,4.6,4Zm-1.63-3.72H79.45c-2.65,0-4.2.71-4.2,2.69a2.43,2.43,0,0,0,2.67,2.47c3.33,0,3.79-2.22,3.79-4.73Z" style="fill:#0064a4"/><path d="M88.18,9c0-1.1,0-2.17,0-3.16h1.63c0,.39.08,1.87.07,2.23a4,4,0,0,1,4.06-2.53c2.28,0,4.2,1.34,4.2,4.74v8.09H96.44V10.46c0-2.07-.84-3.44-2.9-3.44-2.7,0-3.69,2.17-3.69,4.8v6.5H88.18Z" style="fill:#0064a4"/><path d="M112.93,0V14.74c0,1.19,0,2.35,0,3.58h-1.6c0-.31-.08-1.39-.09-1.95-.62,1.42-2,2.25-4.09,2.25-3.24,0-5.2-2.64-5.2-6.42s2.13-6.71,5.56-6.71c2.38,0,3.37,1,3.73,1.75V0Zm-9.22,12.14c0,3.25,1.63,5,3.7,5,3.13,0,3.92-2.22,3.92-5.33S110.64,7,107.61,7C105.25,7,103.71,8.84,103.71,12.14Z" style="fill:#0064a4"/><path d="M139.15,18.32h-1.42a12.36,12.36,0,0,1-.19-2.59c-.68,1.21-2.11,2.81-5.52,2.81-5,0-7.6-3.81-7.6-8.75,0-5.2,2.78-9.1,8-9.1,3.88,0,6.39,2.06,6.91,5.22H137.5c-.67-2.22-2.24-3.67-5.18-3.67-4.21,0-6,3.3-6,7.46,0,3.8,1.78,7.28,5.88,7.28s5.24-2.72,5.24-6.16v-.19h-5.28V9.06h7Z" style="fill:#0064a4"/><path d="M153.5,14.67c0,1.22,0,3,0,3.65h-1.62c0-.33-.07-1.12-.08-2-.56,1.44-1.81,2.34-3.92,2.34-1.95,0-4.12-.86-4.12-4.56V5.79h1.64v7.9c0,1.74.55,3.4,2.85,3.4,2.58,0,3.55-1.44,3.55-4.82V5.79h1.67Z" style="fill:#0064a4"/><path d="M158.31,0H160V2.56h-1.67Zm0,5.79H160V18.32h-1.67Z" style="fill:#0064a4"/><path d="M174.82,0V14.74c0,1.19,0,2.35,0,3.58h-1.61c-.05-.31-.08-1.39-.09-1.95-.62,1.42-2,2.25-4.09,2.25-3.24,0-5.2-2.64-5.2-6.42s2.13-6.71,5.56-6.71c2.38,0,3.38,1,3.73,1.75V0ZM165.6,12.14c0,3.25,1.63,5,3.7,5,3.13,0,3.92-2.22,3.92-5.33S172.53,7,169.5,7C167.14,7,165.6,8.84,165.6,12.14Z" style="fill:#0064a4"/><path d="M180.36,12.32c0,2.92,1.49,4.83,3.77,4.83A3.23,3.23,0,0,0,187.47,15h1.69a4.94,4.94,0,0,1-5.09,3.63c-3.87,0-5.4-3.25-5.4-6.45,0-3.65,1.82-6.68,5.55-6.68,3.94,0,5.21,3.29,5.21,5.79,0,.37,0,.71,0,1Zm7.36-1.3c0-2.29-1.23-4.11-3.54-4.11s-3.5,1.68-3.75,4.11Z" style="fill:#0064a4"/></svg>